<?xml version="1.0" standalone="no"?>
<!DOCTYPE svg PUBLIC "-//W3C//DTD SVG 20010904//EN"
 "http://www.w3.org/TR/2001/REC-SVG-20010904/DTD/svg10.dtd">
<svg version="1.0" xmlns="http://www.w3.org/2000/svg"
 width="180.000000pt" height="180.000000pt" viewBox="0 0 180.000000 180.000000"
 preserveAspectRatio="xMidYMid meet">

<g transform="translate(0.000000,180.000000) scale(0.100000,-0.100000)"
fill="#000000" stroke="none">
<path d="M0 900 l0 -900 900 0 900 0 0 900 0 900 -900 0 -900 0 0 -900z m1254
494 c9 -3 16 -18 16 -33 0 -21 -76 -102 -402 -428 -334 -334 -408 -403 -430
-403 -21 0 -29 6 -34 26 -6 24 28 61 402 435 225 225 414 409 421 409 6 0 18
-3 27 -6z m94 -466 c7 -7 12 -19 12 -28 0 -20 -440 -460 -461 -460 -21 0 -39
20 -39 44 0 29 427 456 455 456 12 0 26 -5 33 -12z"/>
</g>
</svg>
